<svg width="20" height="20" viewBox="0 0 20 20" fill="none" xmlns="http://www.w3.org/2000/svg">
<circle cx="10.5" cy="10.5" r="6.5" fill="#A3A4AF"/>
<g clip-path="url(#clip0_2162_20627)">
<path d="M18.3335 7.49999V5.83333H17.5002V4.16666H16.6668V3.33333H15.8335V2.49999H14.1668V1.66666H12.5002V0.833328H7.50016V1.66666H5.8335V2.49999H4.16683V3.33333H3.3335V4.16666H2.50016V5.83333H1.66683V7.49999H0.833496V12.5H1.66683V14.1667H2.50016V15.8333H3.3335V16.6667H4.16683V17.5H5.8335V18.3333H7.50016V19.1667H12.5002V18.3333H14.1668V17.5H15.8335V16.6667H16.6668V15.8333H17.5002V14.1667H18.3335V12.5H19.1668V7.49999H18.3335ZM15.0002 9.99999H14.1668V10.8333H13.3335V11.6667H12.5002V12.5H11.6668V13.3333H10.8335V14.1667H10.0002V15H8.3335V14.1667H7.50016V13.3333H6.66683V12.5H5.8335V11.6667H5.00016V9.99999H5.8335V9.16666H7.50016V9.99999H8.3335V10.8333H10.0002V9.99999H10.8335V9.16666H11.6668V8.33333H12.5002V7.49999H13.3335V6.66666H15.0002V7.49999H15.8335V9.16666H15.0002V9.99999Z" fill="#C7C9D7"/>
</g>
<defs>
<clipPath id="clip0_2162_20627">
<rect width="20" height="20" fill="white"/>
</clipPath>
</defs>
</svg>
